<svg width="30" height="30" viewBox="0 0 30 30" fill="none" xmlns="http://www.w3.org/2000/svg">
<g id="GitHub" clip-path="url(#clip0_5_54)">
<path id="Vector" d="M15 0C6.71484 0 0 6.71484 0 15C0 23.2852 6.71484 30 15 30C23.2852 30 30 23.2852 30 15C30 6.71484 23.2852 0 15 0ZM15 3C21.6152 3 27 8.38477 27 15C27 15.7031 26.9297 16.3945 26.8125 17.0625C26.4434 16.9805 25.8984 16.8809 25.2656 16.875C24.7969 16.8691 24.2109 16.9453 23.7188 17.0156C23.8887 16.4941 24 15.9199 24 15.3281C24 13.8867 23.2969 12.5449 22.1719 11.4375C22.4824 10.2832 22.7871 8.30273 21.9844 7.5C19.6113 7.5 18.2988 9.19336 18.2344 9.28125C17.502 9.10547 16.7461 9 15.9375 9C14.9004 9 13.9102 9.1875 12.9844 9.46875L13.2656 9.23438C13.2656 9.23438 11.9473 7.40625 9.51562 7.40625C8.66602 8.26172 9.05273 10.4297 9.375 11.5312C8.22656 12.627 7.5 13.9219 7.5 15.3281C7.5 15.8203 7.61719 16.2891 7.73438 16.7344C7.31836 16.6875 5.81836 16.5469 5.20312 16.5469C4.6582 16.5469 3.81445 16.6758 3.14062 16.8281C3.04688 16.2305 3 15.6211 3 15C3 8.38477 8.38477 3 15 3ZM5.20312 16.9219C5.79492 16.9219 7.59375 17.1328 7.82812 17.1562C7.85742 17.2383 7.88672 17.3145 7.92188 17.3906C7.27734 17.332 6.0293 17.2441 5.20312 17.3438C4.65234 17.4082 3.94922 17.6074 3.32812 17.7656C3.28125 17.5781 3.22266 17.3965 3.1875 17.2031C3.84375 17.0625 4.70508 16.9219 5.20312 16.9219ZM25.2656 17.25C25.8633 17.2559 26.4082 17.3555 26.7656 17.4375C26.748 17.5371 26.6953 17.6191 26.6719 17.7188C26.291 17.6309 25.6641 17.502 24.9375 17.4844C24.5859 17.4785 24.0234 17.4961 23.5312 17.5312C23.5547 17.4844 23.5605 17.4375 23.5781 17.3906C24.0879 17.3203 24.7383 17.2441 25.2656 17.25ZM6.14062 17.6719C6.98438 17.6777 7.77539 17.7363 8.10938 17.7656C8.89453 19.2305 10.4824 20.3145 12.9375 20.7656C12.334 21.0996 11.7949 21.5684 11.3906 22.125C11.0391 22.1543 10.6699 22.1719 10.3125 22.1719C9.26953 22.1719 8.61914 21.2402 8.0625 20.4375C7.5 19.6348 6.80859 19.5469 6.42188 19.5C6.0293 19.4531 5.89453 19.6758 6.09375 19.8281C7.23633 20.707 7.64648 21.75 8.10938 22.6875C8.52539 23.5312 9.39844 24 10.3594 24H10.5469C10.5176 24.1641 10.5 24.3164 10.5 24.4688V26.1094C7.03711 24.709 4.40039 21.75 3.42188 18.0938C4.03711 17.9414 4.72852 17.7832 5.25 17.7188C5.49023 17.6895 5.79492 17.666 6.14062 17.6719ZM24.9375 17.8594C25.6113 17.877 26.209 18.0059 26.5781 18.0938C25.752 21.1992 23.7129 23.7832 21 25.3594V24.4688C21 23.1914 19.9922 21.5508 18.5625 20.7656C20.9355 20.332 22.4824 19.2949 23.2969 17.9062C23.8652 17.8652 24.5332 17.8477 24.9375 17.8594ZM15.75 24C16.1602 24 16.5 24.3398 16.5 24.75V26.9062C16.0078 26.9707 15.5098 27 15 27V24.75C15 24.3398 15.3398 24 15.75 24ZM12.75 25.5C13.1602 25.5 13.5 25.8398 13.5 26.25V26.9062C12.9961 26.8418 12.4863 26.748 12 26.625V26.25C12 25.8398 12.3398 25.5 12.75 25.5ZM18.75 25.5C19.1133 25.5 19.4297 25.7637 19.5 26.1094C19.0137 26.3086 18.5156 26.4902 18 26.625V26.25C18 25.8398 18.3398 25.5 18.75 25.5Z" fill="#0874A3"/>
</g>
<defs>
<clipPath id="clip0_5_54">
<rect width="30" height="30" fill="white"/>
</clipPath>
</defs>
</svg>
